<?xml version="1.0" standalone="no"?>
<!DOCTYPE svg PUBLIC "-//W3C//DTD SVG 20010904//EN"
 "http://www.w3.org/TR/2001/REC-SVG-20010904/DTD/svg10.dtd">
<svg version="1.0" xmlns="http://www.w3.org/2000/svg"
 width="600.000000pt" height="600.000000pt" viewBox="0 0 600.000000 600.000000"
 preserveAspectRatio="xMidYMid meet">
<metadata>
Created by potrace 1.11, written by Peter Selinger 2001-2013
</metadata>
<g transform="translate(0.000000,600.000000) scale(0.100000,-0.100000)"
fill="#000000" stroke="none">
<path d="M1738 5041 c-24 -41 -55 -95 -70 -120 -15 -26 -31 -53 -35 -61 -4 -8
-26 -48 -50 -88 -24 -40 -43 -77 -43 -82 0 -6 -4 -10 -9 -10 -5 0 -11 -8 -14
-17 -4 -10 -18 -38 -33 -63 -15 -25 -38 -65 -52 -89 -14 -25 -38 -68 -55 -95
-16 -28 -40 -69 -52 -91 -13 -22 -61 -106 -107 -186 -47 -80 -88 -152 -92
-160 -4 -8 -12 -23 -19 -34 -35 -59 -346 -594 -378 -652 -12 -21 -43 -75 -70
-121 -27 -45 -49 -85 -49 -88 0 -3 -11 -21 -24 -41 -14 -20 -22 -42 -18 -52 3
-9 41 -76 84 -150 43 -73 78 -137 78 -142 0 -5 5 -9 10 -9 6 0 10 -5 10 -11 0
-6 16 -38 36 -70 19 -32 35 -62 35 -66 0 -4 6 -15 13 -23 8 -8 42 -64 76 -125
70 -123 73 -130 155 -270 66 -113 118 -203 147 -255 11 -19 71 -123 133 -230
62 -107 125 -217 140 -245 15 -27 36 -62 46 -77 11 -14 19 -29 19 -33 0 -3 13
-26 30 -50 16 -24 30 -46 30 -50 0 -3 36 -67 80 -142 44 -75 81 -141 83 -146
4 -12 2450 -13 2454 -1 2 5 31 56 64 114 34 58 71 121 81 140 110 193 386 671
510 883 38 65 83 144 100 175 17 32 36 64 43 72 7 8 14 20 16 25 4 9 119 212
140 245 5 8 65 113 134 232 l125 217 -19 35 c-11 19 -31 53 -45 75 -15 22 -26
43 -26 45 0 2 -20 37 -43 78 -45 75 -224 385 -259 448 -11 19 -44 76 -73 125
-29 50 -62 107 -74 128 -26 45 -30 53 -171 297 -62 107 -134 232 -161 278 -27
45 -49 84 -49 86 0 1 -65 114 -145 251 -79 137 -146 253 -148 258 -1 5 -531 9
-1224 10 l-1222 2 -43 -74z"/>
</g>
</svg>
